<svg xmlns="http://www.w3.org/2000/svg" xmlns:xlink="http://www.w3.org/1999/xlink" height="800" width="1200" version="1.0" viewBox="-6.900765 -8.554725 59.80663 51.32835"><defs><linearGradient id="k"><stop offset="0" stop-color="#5b676b"/><stop offset="1" stop-color="#141718"/></linearGradient><linearGradient id="f"><stop offset="0"/><stop offset="1" stop-opacity="0"/></linearGradient><linearGradient id="e"><stop offset="0" stop-color="#fff"/><stop offset="1" stop-color="#fff" stop-opacity="0"/></linearGradient><linearGradient id="a"><stop offset="0" stop-color="#fff"/><stop offset="1" stop-color="#fff" stop-opacity="0"/></linearGradient><linearGradient gradientTransform="rotate(27.621 -26.244 -49.4403) scale(.8523)" gradientUnits="userSpaceOnUse" xlink:href="#a" id="x" y2="42.2821" x2="7.7521" y1="37.7522" x1="13.2362"/><linearGradient id="h"><stop offset="0" stop-color="#696969"/><stop offset="1"/></linearGradient><linearGradient id="b"><stop offset="0" stop-color="#bdbdbd"/><stop offset=".3333" stop-color="#e2e2e2"/><stop offset=".6667" stop-color="#a3a3a3"/><stop offset="1" stop-color="#ddd"/></linearGradient><linearGradient gradientTransform="translate(-46.407 -1.8029)" gradientUnits="userSpaceOnUse" xlink:href="#b" id="v" y2="33.4388" x2="23.1093" y1="30.0013" x1="19.3947"/><linearGradient id="c"><stop offset="0" stop-color="#6e3d09"/><stop offset=".2424" stop-color="#ea8113"/><stop offset=".6212" stop-color="#5c3307"/><stop offset="1" stop-color="#e07c12"/></linearGradient><linearGradient gradientTransform="translate(-49.305 1.8777)" gradientUnits="userSpaceOnUse" xlink:href="#c" id="u" y2="11.1825" x2="27.7539" y1="19.2399" x1="37.0176"/><linearGradient id="l"><stop offset="0" stop-color="#857c63"/><stop offset="1" stop-color="#221f19"/></linearGradient><linearGradient id="j"><stop offset="0"/><stop offset="1" stop-opacity="0"/></linearGradient><linearGradient id="g"><stop offset="0"/><stop offset="1" stop-opacity="0"/></linearGradient><linearGradient id="i"><stop offset="0" stop-color="#fff"/><stop offset="1" stop-color="#b9b9b0"/></linearGradient><linearGradient id="d"><stop offset="0" stop-color="#fff"/><stop offset="1" stop-color="#fff" stop-opacity="0"/></linearGradient><linearGradient gradientUnits="userSpaceOnUse" xlink:href="#d" id="s" y2="31.57" x2="5.9846" y1="23.3624" x1="6.3052"/><linearGradient gradientUnits="userSpaceOnUse" xlink:href="#e" id="p" y2="46.9857" x2="39.5245" y1="19.1107" x1="14.9688"/><linearGradient gradientUnits="userSpaceOnUse" xlink:href="#f" id="y" y2="30.9852" x2="24.3289" y1="30.5433" x1="26.163"/><linearGradient gradientTransform="translate(-3.8365 .346)" gradientUnits="userSpaceOnUse" xlink:href="#g" id="o" y2="30.2931" x2="21.2132" y1="28.0834" x1="32.3501"/><radialGradient gradientTransform="matrix(1.5727 0 0 1.53264 -55.3668 -21.3582)" gradientUnits="userSpaceOnUse" xlink:href="#h" id="w" fy="35.3565" fx="15.4151" r="7.5792" cy="35.3565" cx="15.4151"/><radialGradient gradientTransform="translate(-22.1264 -6.2417) scale(1.31849)" gradientUnits="userSpaceOnUse" xlink:href="#i" id="t" fy="19.5979" fx="69.4732" r="3.5153" cy="19.5979" cx="69.4732"/><radialGradient gradientTransform="matrix(1 0 0 .28425 0 24.2909)" gradientUnits="userSpaceOnUse" xlink:href="#j" id="m" fy="33.9375" fx="23" r="18.25" cy="33.9375" cx="23"/><radialGradient gradientTransform="matrix(.91616 .09319 -.10877 1.0693 3.2537 -3.0293)" gradientUnits="userSpaceOnUse" xlink:href="#k" id="r" fy="25.271" fx="6.0242" r="4.831" cy="25.271" cx="6.0242"/><radialGradient gradientTransform="matrix(1.77275 0 0 1.29668 -16.3404 -6.616)" gradientUnits="userSpaceOnUse" xlink:href="#l" id="n" fy="22.3" fx="18.5576" r="19.2292" cy="22.3" cx="18.5576"/><radialGradient gradientTransform="translate(-22.1264 -6.2417) scale(1.31849)" gradientUnits="userSpaceOnUse" xlink:href="#i" id="q" fy="19.5979" fx="69.4732" r="3.5153" cy="19.5979" cx="69.4732"/></defs><g color="#000"><path style="marker:none" transform="matrix(1 0 0 1.53012 -.467 -28.2262)" d="M41.25 33.9375a18.25 5.1875 0 11-36.5 0 18.25 5.1875 0 1136.5 0z" overflow="visible" fill="url(#m)" fill-rule="evenodd"/><path style="marker:none" d="M10.3744 12.4679s2.8745 5.9276 9.5992 5.7604c14.0925-.3536 16.5637-7.705 16.9173-8.7656.3535-1.0607.8945-.9 1.0196.0802 4.5962 41.7193-31.897 23.8192-33.193 16.7136 7.2479-2.1214 5.48-6.1872 5.48-6.1872z" overflow="visible" fill="url(#n)" fill-rule="evenodd" stroke="#2e3436" stroke-miterlimit="10" transform="translate(-.592 -8.2352)"/><path style="marker:none" d="M15.7378 30.066c6.7389 1.3479 10.1707.0981 12.1792-1.4527-.5304-.685-1.4363-1.4363-1.4363-1.4363s2.3533.6539 3.182 1.7235c.8262 1.0666.3067 1.7237.0905 3.0884-.4814-1.1986-1.38-1.648-1.5016-2.1243-1.8063 2.4969-6.3065 2.3932-12.5138.2014z" overflow="visible" fill="url(#o)" fill-rule="evenodd" transform="translate(-.592 -8.2352)"/><path style="marker:none" d="M36.9688 11.8438c-.562.9268-1.4065 2.0331-2.6876 3.0937-2.6319 2.179-7.0505 4.1623-14.2812 4.3438-4.2244.105-6.9527-1.9342-8.625-3.75L11.25 20c.1361.4188.4155 1.3905-.0625 2.7188-.5143 1.4292-2.1545 2.8913-4.9688 4 .2504.522.4955 1.0436 1.25 1.7812 1.028 1.005 2.457 2.088 4.1563 3.0625 3.3984 1.9489 7.8016 3.4932 11.9063 3.5625 4.1046.0693 7.857-1.2346 10.4374-5 2.3788-3.4712 3.6825-9.348 3-18.2813z" overflow="visible" opacity=".1854" fill="none" stroke="url(#p)" stroke-miterlimit="10" transform="translate(-.592 -8.2352)"/><path style="marker:none" transform="translate(-75.7185 -14.743) scale(1.27778)" d="M72.6552 21.837a3.182 3.182 0 11-6.364 0 3.182 3.182 0 116.364 0z" overflow="visible" fill="url(#q)" fill-rule="evenodd" stroke="#888a85" stroke-width=".7826" stroke-miterlimit="10"/><path style="marker:none" transform="rotate(-35.808 -9.6784 23.1433)" d="M10.4298 27.2287a4.331 6.0988 0 11-8.662 0 4.331 6.0988 0 118.662 0z" overflow="visible" fill="url(#r)" fill-rule="evenodd" stroke="#000" stroke-miterlimit="10"/><path style="marker:none" d="M15.9612 13.7623a1.9576 1.9576 0 11-3.9152 0 1.9576 1.9576 0 113.9152 0z" overflow="visible" fill="#2e3436" fill-rule="evenodd" stroke="#000" stroke-miterlimit="10"/><path style="marker:none" transform="rotate(-36.833 -9.2957 23.3715)" d="M6.0938 22.1563c-.7983 0-1.5532.4461-2.1875 1.3437-.6344.8976-1.0938 2.2342-1.0938 3.7188 0 1.4845.4594 2.8211 1.0938 3.7187.6343.8976 1.3892 1.3438 2.1875 1.3438.7982 0 1.5772-.4764 2.2187-1.375.6415-.8987 1.0938-2.2062 1.0938-3.6876 0-1.4813-.4523-2.7888-1.0938-3.6874-.6415-.8987-1.4205-1.375-2.2188-1.375z" overflow="visible" opacity=".2809" fill="none" stroke="url(#s)" stroke-miterlimit="10"/><path style="marker:none" d="M5.2417 15.016a1.7678 2.1213 0 11-3.5355 0 1.7678 2.1213 0 113.5355 0zm9.3643-2.1573a1.3553 1.3553 0 11-2.7106 0 1.3553 1.3553 0 112.7105 0z" overflow="visible" fill="#fff" fill-rule="evenodd"/><path style="marker:none" transform="matrix(1.5 0 0 1.5 -82.7601 -19.1537)" d="M72.6552 21.837a3.182 3.182 0 11-6.364 0 3.182 3.182 0 116.364 0z" overflow="visible" fill="url(#t)" fill-rule="evenodd" stroke="#888a85" stroke-width=".6667" stroke-miterlimit="10"/><path style="marker:none" d="M24.864 14.309a2.2981 2.2981 0 11-4.5963 0 2.2981 2.2981 0 114.5962 0z" overflow="visible" fill="#2e3436" fill-rule="evenodd" stroke="#000" stroke-miterlimit="10"/><path style="marker:none" d="M23.273 13.2483a1.591 1.591 0 11-3.182 0 1.591 1.591 0 113.182 0z" overflow="visible" fill="#fff" fill-rule="evenodd"/><path style="marker:none" d="M-23.3642 23.5683l3.71 3.4692C-11.3071 20.6567-2.56 6.9381-2.56 6.9381c1.9763-2.2424-.117-3.7504-2.165-2.3979 0 0-12.9703 10.1149-18.6392 19.0281z" overflow="visible" fill="url(#u)" stroke="#673907" stroke-width="2.4604" stroke-linecap="round" transform="rotate(-106.415 20.0844 1.7063) scale(.40643)"/><path style="marker:none" d="M-30.4497 32.8139l2.2463 1.9338 8.4928-7.367.275-.7058 1.0944-.0179c-.4375-1.5625-2.9415-4.3834-4.8165-4.3834l.082 1.09-.67.38z" overflow="visible" fill="url(#v)" stroke="#888a85" stroke-width="2.4604" stroke-linecap="round" transform="rotate(-106.415 20.0844 1.7063) scale(.40643)"/><path style="marker:none" d="M37.9199 27.4744l2.5545 1.0969" overflow="visible" fill="none" stroke="#fff" stroke-linecap="round" stroke-linejoin="round"/><path style="marker:none" d="M-45.3412 42.7698c10.444 0 18.37 1.2438 19.8706-6.3547 1.2092-6.1233-7.2105-9.0574-11.3829-3.5909-4.0193 5.266-8.4877 9.9456-8.4877 9.9456z" overflow="visible" fill="url(#w)" transform="rotate(-106.415 20.0844 1.7063) scale(.40643)"/><path style="marker:none" d="M41.4333 27.5318a1.0516 1.0516 0 11.5943 2.0175 1.0516 1.0516 0 11-.5943-2.0175z" overflow="visible" opacity=".5278" fill="#fff"/><path style="marker:none" d="M36.848 26.0354a.7096.7096 0 11.401 1.3613.7096.7096 0 11-.401-1.3613z" overflow="visible" fill="#fff"/><path style="marker:none" d="M-38.5437 40.9092s3.7215.0943 6.1165-1.412c.8474-.5329 1.5158.65.4938 1.0874-2.2074.9447-6.6103.3246-6.6103.3246z" overflow="visible" opacity=".4278" fill="url(#x)" transform="rotate(-106.415 20.0844 1.7063) scale(.40643)"/><path style="marker:none" d="M23.003 31.7365c1.4974.1431 2.8497-.2722 3.412-.474.0982-.5554.5365-1.6213 2.046-1.6915l-.5303-.928s-1.9666 1.3479-4.0658 1.7456z" overflow="visible" fill="url(#y)" fill-rule="evenodd" transform="translate(-.592 -8.2352)"/></g></svg>