<svg height="128" width="128" xmlns="http://www.w3.org/2000/svg" xmlns:xlink="http://www.w3.org/1999/xlink"><linearGradient id="a" gradientUnits="userSpaceOnUse"><stop offset="0" stop-color="#fff"/><stop offset="1" stop-color="#fff" stop-opacity="0"/></linearGradient><linearGradient id="b" gradientUnits="userSpaceOnUse" x1="0" x2="0" y1="128" y2="64"><stop offset="0"/><stop offset="1" stop-opacity="0"/></linearGradient><linearGradient id="c" gradientUnits="userSpaceOnUse" x1="0" x2="0" xlink:href="#a" y1="128" y2="76"/><linearGradient id="d" gradientUnits="userSpaceOnUse" x1="80" x2="60" xlink:href="#a" y1="20" y2="40"/><linearGradient id="e" gradientUnits="userSpaceOnUse" x1="60" x2="90" xlink:href="#a" y1="20" y2="50"/><linearGradient id="f" gradientUnits="userSpaceOnUse" x1="33" x2="58" xlink:href="#a" y1="35" y2="60"/><clipPath id="g"><path id="h" d="m54.1 12.5-41.2 42.2c-15.6 15.6 10.1 14.3 19.4 20.2 4.3 2.8-13.8 6.4-10.1 10.1 3.6 3.7 21.7 7.1 25.3 10.7 3.6 3.7-7.3 7.6-3.7 11.3 3.5 3.7 11.9.2 13.4 8.6 1.1 6.2 15.4 3.1 21.8-2.2 4-3.4-6.9-3.4-3.3-7.1 9-9.1 17-4.1 20.3-12.5 1.8-4.5-13.6-7.7-9.5-10.6 9.8-6.9 45.8-10.4 29.2-27l-42.7-43.7c-5.3-5-14-5-18.9 0zm-9.9 64.7c.9 0 30.8 4 19.3 7.1-4.4 1.2-24.6-7.1-19.3-7.1zm57.2 16.6c0 2.1 16.3 3.3 15.4-.5-1.3-6.4-13.6-5.9-15.4.5zm-69.5 11.1c3.7 3.2 9.3-.7 11.1-5.2-3.6-4.7-16.9.3-11.1 5.2zm67.5-6.7c-4.6 4.2.8 8.6 5.3 5.7 1.2-.8-.1-4.7-5.3-5.7z"/></clipPath><filter id="i" filterUnits="userSpaceOnUse" x="0" y="0"><feGaussianBlur in="SourceAlpha" result="blur" stdDeviation="3"/></filter><path d="m8 62.9c-2.5 9.4 15.4 11.1 24.3 14.7 2.2 1 1.2-3.2.1-4.2-7.2-3.6-22.2-4.4-24.4-10.5zm111.6 1c-2.7 8.9-25 13.1-33 17.8-2.1 1.2-3.2 6.3.4 4.3 9.6-5.3 35.8-10.7 32.6-22.1zm-75.3 11.8c-3.3 0-5.3 1.6.6 3.7 7.7.6 18.8 3.6 21.1 4.6 3.8-6.5-21-8.3-21.7-8.3zm-21.1 8.5c-1.4-1.2-2.9 1-.9 2.8 3.5 3.8 22.6 7.9 26.3 11.5 1.8.9 1.2-2.5.1-3.6-3.4-3.4-20.5-7.3-25.5-10.7zm78.5 9.7c.2 3.5 15.8 7.6 15.2.1-.2-2.6-15.4-2.7-15.2-.1zm-6.1-.2c-3.4 7.1-11.3 2.5-19.8 11.1-2.3 1.7-1.3 6.2 1 3.8 8.7-8.2 16.4-3.7 19.4-12.6.2-1 0-1.6-.6-2.3zm-64.1 12.3c4.5 5 9.8 1.8 11.5-5.7-.4-1.7-16.8.1-11.5 5.7zm67.2-5.8c-5.4 4.4 3.3 9.4 6 5.8 3.6-4.7-3.4-3.4-6-5.8zm-55.2 4.8c-.9 1.2-.8 3 .3 4.2 3.6 3.6 12 .1 13.5 8.6 1.1 6.1 15.2 3.5 22-1.4 1.5-1.6 1.6-5.4-.3-4.4-29.8 13.4-10.8-3.8-35.5-7z" filter="url(#i)"/><use fill="none" opacity=".1" xlink:href="#h"/><use fill="none" opacity=".2" xlink:href="#h"/><use xlink:href="#h"/><use clip-path="url(#g)" fill="none" opacity=".2" xlink:href="#h"/><use fill="url(#c)" opacity=".5" xlink:href="#h"/><use fill="url(#d)" opacity=".25" xlink:href="#h"/><path d="m16.8 56.9c-11.1 11 8.4 7.9 23.4 13.8l31-54.5c-4.7-4.8-10.7-4.4-15 0z" fill="url(#f)" opacity=".5"/><path d="m8.9 61.7c-2.6 9.4 13.4 9.2 22.3 12.7 1.5-.9 2.3-2 1.2-3-7.2-3.6-21.4-3.6-23.5-9.7zm111.1 1c-2.7 8.9-25.5 12.3-33.4 17-1.1 1.1-.4 2.1.9 3.1 9.8-4.9 35.7-8.7 32.5-20.1zm-75.7 11c-3.2 0-5.2 1.6.6 3.7 7.7.6 18.8 3.7 21.2 4.7 3.7-6.6-21-8.4-21.8-8.4zm-21.1 8.5c-1.3.9-2 1.9-.9 2.9 3.5 3.7 21.5 7.1 25.2 10.7.9-1.2 1.2-2.4.1-3.6-3.4-3.4-19.4-6.6-24.4-10zm79.8 9.1c-.7.8-1.3 1.7-1.5 2.7 0 2.1 15.4 3.4 15.4-.6-.3-.7-.6-1.4-1.2-2.1-2.8 1.6-9.7 1.2-12.7 0zm-7.4.4c-3.4 7.1-11.3 2.5-19.8 11.1-1.4 1.5-.6 2.3.7 3 8.7-8.2 16.7-2.9 19.7-11.8.2-.9 0-1.6-.6-2.3zm-54 7c-2.4 3.2-6.6 5.3-9.6 2.7-.3-.2-.5-.5-.7-.8-1.1 1.4-1.1 2.9.7 4.5 3.6 3.1 9.3-.8 11-5.2-.3-.5-.9-.9-1.4-1.2zm56.7 1c-2.3 3.7 2.3 6.7 6.4 4.4.6-.7.5-2.1-.6-3.5-2.4 1.2-4.7.5-5.8-.9zm-54.4 3.9c-.9 1.1-1.2 2.4-.1 3.6 3.6 3.6 12 .1 13.5 8.6 1.1 6.1 14.7 2.9 21.5-2 1.5-1.64.8-2.7-.5-3.5-7.1 4.8-20 7.7-21 1.9-1.5-8.5-9.8-5.1-13.4-8.6z" fill="url(#b)"/><path d="m70.5 15.5 16.3 16.6c1.5 1.5 1.5 4.6.6 5.5l-8.1-6.6-1.6 9.7-6.7-3.6-10.9 6.9-3.6-14.5-5.8 12.6-14.5-.1c-2.8 0-2.4-2.9.5-5.8 5.7-6.3 16.8-17 20.3-20.7 3.6-3.7 9.9-3.6 13.5 0z" fill="url(#e)"/></svg>