<svg xmlns="http://www.w3.org/2000/svg" xmlns:xlink="http://www.w3.org/1999/xlink" height="800" width="1200" id="svg2" version="1.0" viewBox="-20.0958 -33.20425 174.1636 199.2255"><defs id="defs4"><linearGradient gradientUnits="userSpaceOnUse" id="WhiteTransparent"><stop id="stop7" offset="0" stop-color="#fff" stop-opacity="1"/><stop id="stop9" offset="1" stop-color="#fff" stop-opacity="0"/></linearGradient><linearGradient gradientUnits="userSpaceOnUse" id="BlackTransparent"><stop id="stop12" offset="0" stop-color="#000" stop-opacity="1"/><stop id="stop14" offset="1" stop-color="#000" stop-opacity="0"/></linearGradient><linearGradient gradientUnits="userSpaceOnUse" y2="64" x2="0" y1="128" x1="0" xlink:href="#BlackTransparent" id="liquidShade"/><linearGradient gradientUnits="userSpaceOnUse" y2="76" x2="0" y1="128" x1="0" xlink:href="#WhiteTransparent" id="liquidSpecular"/><linearGradient gradientUnits="userSpaceOnUse" y2="40" x2="60" y1="20" x1="80" xlink:href="#WhiteTransparent" id="sideSpecular"/><linearGradient gradientUnits="userSpaceOnUse" y2="50" x2="90" y1="20" x1="60" xlink:href="#WhiteTransparent" id="IcecapTip"/><linearGradient gradientUnits="userSpaceOnUse" y2="60" x2="58" y1="35" x1="33" xlink:href="#WhiteTransparent" id="shinySpecular"/><linearGradient y2="40" x2="60" y1="20" x1="82.119" gradientUnits="userSpaceOnUse" id="linearGradient9175" xlink:href="#linearGradient5785"/><linearGradient id="linearGradient5785" gradientUnits="userSpaceOnUse"><stop offset="0" id="stop5787" stop-color="#c0cdf9" stop-opacity="1"/><stop offset="1" id="stop5789" stop-color="#07092d" stop-opacity=".288"/></linearGradient><linearGradient gradientTransform="translate(-.39 -.383) scale(1.00918)" id="shinySpecular-4" xlink:href="#WhiteTransparent-4" x1="33" y1="35" x2="58" y2="60" gradientUnits="userSpaceOnUse"/><linearGradient id="WhiteTransparent-4" gradientUnits="userSpaceOnUse"><stop offset="0" id="stop7606-4" stop-color="#fff" stop-opacity="1"/><stop offset="1" id="stop7608-7" stop-color="#fff" stop-opacity="0"/></linearGradient><linearGradient id="IcecapTip-6" xlink:href="#WhiteTransparent-4" x1="60" y1="20" x2="90" y2="50" gradientUnits="userSpaceOnUse"/><linearGradient id="linearGradient8568"><stop id="stop8570" offset="0" stop-color="#fff" stop-opacity="1"/><stop id="stop8572" offset="1" stop-color="#fff" stop-opacity="0"/></linearGradient><linearGradient id="linearGradient8738"><stop id="stop8740" offset="0" stop-color="#fff" stop-opacity="1"/><stop id="stop8742" offset="1" stop-color="#fff" stop-opacity="0"/></linearGradient><linearGradient gradientUnits="userSpaceOnUse" y2="201.5" x2="231.75" y1="195.188" x1="231.625" id="linearGradient8912" xlink:href="#linearGradient8866"/><linearGradient id="linearGradient8866"><stop id="stop8868" offset="0" stop-color="#fff" stop-opacity="1"/><stop id="stop8870" offset="1" stop-color="#fff" stop-opacity="0"/></linearGradient><linearGradient gradientUnits="userSpaceOnUse" y2="200.071" x2="231.376" y1="195.621" x1="231.376" id="linearGradient8910" xlink:href="#linearGradient8866"/><linearGradient id="linearGradient8916"><stop id="stop8918" offset="0" stop-color="#fff" stop-opacity="1"/><stop id="stop8920" offset="1" stop-color="#fff" stop-opacity="0"/></linearGradient><linearGradient y2="201.5" x2="231.75" y1="195.188" x1="231.625" gradientUnits="userSpaceOnUse" id="linearGradient8990" xlink:href="#linearGradient8866"/><linearGradient y2="200.071" x2="231.376" y1="195.621" x1="231.376" gradientUnits="userSpaceOnUse" id="linearGradient8992" xlink:href="#linearGradient8866"/><linearGradient id="linearGradient8998"><stop id="stop9000" offset="0" stop-color="#fff" stop-opacity=".33"/><stop id="stop9002" offset="1" stop-color="#fff" stop-opacity="0"/></linearGradient><linearGradient y2="201.5" x2="231.75" y1="195.188" x1="231.625" gradientUnits="userSpaceOnUse" id="linearGradient9023" xlink:href="#linearGradient8866"/><linearGradient y2="200.071" x2="231.376" y1="195.621" x1="231.376" gradientUnits="userSpaceOnUse" id="linearGradient9025" xlink:href="#linearGradient8866"/><linearGradient id="linearGradient9040"><stop id="stop9042" offset="0" stop-color="#fff" stop-opacity="1"/><stop id="stop9044" offset="1" stop-color="#fff" stop-opacity="0"/></linearGradient><linearGradient id="linearGradient9286"><stop id="stop9288" offset="0" stop-color="#fff" stop-opacity="1"/><stop id="stop9290" offset="1" stop-color="#fff" stop-opacity="0"/></linearGradient><linearGradient gradientUnits="userSpaceOnUse" y2="223.5" x2="153.5" y1="208.164" x1="95.5" id="linearGradient5905" xlink:href="#linearGradient5899-3"/><linearGradient id="linearGradient5899-3"><stop id="stop5901-1" offset="0" stop-color="#fff" stop-opacity="1"/><stop id="stop5903-7" offset="1" stop-color="#fff" stop-opacity="0"/></linearGradient><linearGradient gradientTransform="translate(5.177 9.23) scale(.88526)" gradientUnits="userSpaceOnUse" y2="84.48" x2="53.632" y1="76.246" x1="57.225" id="linearGradient5801" xlink:href="#linearGradient5793-6"/><linearGradient id="linearGradient5793-6"><stop id="stop5795-2" offset="0" stop-color="#eeeeec" stop-opacity="1"/><stop id="stop5797-1" offset="1" stop-color="#eeeeec" stop-opacity="0"/></linearGradient><linearGradient id="linearGradient5805"><stop id="stop5807" offset="0" stop-color="#fff" stop-opacity="1"/><stop id="stop5809" offset="1" stop-color="#fff" stop-opacity="0"/></linearGradient><linearGradient y2="187.66" x2="82.754" y1="180.476" x1="73.712" gradientTransform="translate(-6 -9.723) scale(.4928)" gradientUnits="userSpaceOnUse" id="linearGradient5822" xlink:href="#WhiteTransparent-4"/><linearGradient id="linearGradient10981-3"><stop id="stop10983-2" offset="0" stop-color="#729fcf" stop-opacity="1"/><stop id="stop10985-3" offset="1" stop-color="#729fcf" stop-opacity="0"/></linearGradient><linearGradient xlink:href="#linearGradient10981-3" id="linearGradient1030" gradientUnits="userSpaceOnUse" gradientTransform="translate(-130.166 -83.353)" x1="180.813" y1="217.5" x2="153.701" y2="144.5"/><filter y="0" x="0" filterUnits="userSpaceOnUse" id="ShadowBlur"><feGaussianBlur id="feGaussianBlur24" result="blur" stdDeviation="3" in="SourceAlpha"/></filter><filter id="filter6017" color-interpolation-filters="sRGB"><feGaussianBlur id="feGaussianBlur6019" stdDeviation=".805"/></filter><filter id="filter6031" color-interpolation-filters="sRGB"><feGaussianBlur id="feGaussianBlur6033" stdDeviation="3.49"/></filter><filter id="filter8490" color-interpolation-filters="sRGB"><feGaussianBlur id="feGaussianBlur8492" stdDeviation="2.416"/></filter><filter height="1.228" y="-.114" width="1.156" x="-.078" id="filter8732" color-interpolation-filters="sRGB"><feGaussianBlur id="feGaussianBlur8734" stdDeviation="1.958"/></filter><filter height="1.351" y="-.175" width="1.149" x="-.074" id="filter8764" color-interpolation-filters="sRGB"><feGaussianBlur id="feGaussianBlur8766" stdDeviation="2.12"/></filter><filter height="1.556" y="-.278" width="1.171" x="-.085" id="filter8906" color-interpolation-filters="sRGB"><feGaussianBlur id="feGaussianBlur8908" stdDeviation=".565"/></filter><filter height="1.946" y="-.473" width="1.14" x="-.07" id="filter8980" color-interpolation-filters="sRGB"><feGaussianBlur id="feGaussianBlur8982" stdDeviation=".821"/></filter><filter height="1.331" y="-.166" width="1.152" x="-.076" id="filter9068" color-interpolation-filters="sRGB"><feGaussianBlur id="feGaussianBlur9070" stdDeviation=".665"/></filter><filter id="filter9298" color-interpolation-filters="sRGB"><feGaussianBlur id="feGaussianBlur9300" stdDeviation=".326"/></filter><filter height="1.245" y="-.122" width="1.165" x="-.083" id="filter5983-5" color-interpolation-filters="sRGB"><feGaussianBlur id="feGaussianBlur5985-9" stdDeviation="3.687"/></filter><filter id="filter5845" color-interpolation-filters="sRGB"><feGaussianBlur id="feGaussianBlur5847" stdDeviation="1.241"/></filter><filter id="filter10997-7" color-interpolation-filters="sRGB"><feGaussianBlur id="feGaussianBlur10999-0" stdDeviation="2.77"/></filter><radialGradient r="30.6" fy="250.897" fx="116.31" cy="250.897" cx="116.31" gradientTransform="matrix(1.57005 0 0 1.05093 -75.5 -22.096)" gradientUnits="userSpaceOnUse" id="radialGradient9177" xlink:href="#linearGradient8568"/><radialGradient gradientUnits="userSpaceOnUse" gradientTransform="matrix(2.00325 0 0 1.3409 -132.875 -95.166)" r="30.6" fy="251.994" fx="132.444" cy="251.994" cx="132.444" id="radialGradient8574" xlink:href="#linearGradient8568"/><radialGradient gradientUnits="userSpaceOnUse" gradientTransform="matrix(1 0 0 .42336 0 97.164)" r="34.25" fy="168.5" fx="210.25" cy="168.5" cx="210.25" id="radialGradient8744" xlink:href="#linearGradient8738"/><radialGradient r="34.25" fy="182.082" fx="217.5" cy="182.082" cx="217.5" gradientTransform="matrix(1 0 0 .42336 0 97.164)" gradientUnits="userSpaceOnUse" id="radialGradient8768" xlink:href="#linearGradient8738"/><radialGradient gradientUnits="userSpaceOnUse" gradientTransform="matrix(1 0 0 .14775 0 174.57)" r="14.094" fy="204.832" fx="228.219" cy="204.832" cx="228.219" id="radialGradient8922" xlink:href="#linearGradient8916"/><radialGradient r="14.094" fy="204.832" fx="228.219" cy="204.832" cx="228.219" gradientTransform="matrix(1 0 0 .14775 0 174.57)" gradientUnits="userSpaceOnUse" id="radialGradient8994" xlink:href="#linearGradient8916"/><radialGradient gradientUnits="userSpaceOnUse" gradientTransform="matrix(1 0 0 .40708 0 115.76)" r="22.75" fy="187.869" fx="89.875" cy="187.869" cx="89.875" id="radialGradient9004" xlink:href="#linearGradient8998"/><radialGradient gradientUnits="userSpaceOnUse" gradientTransform="matrix(1.18508 -.32836 .12286 .4434 -45.068 152.922)" r="10.469" fy="230.836" fx="90.281" cy="230.836" cx="90.281" id="radialGradient9046" xlink:href="#linearGradient9040"/><radialGradient r="54.783" fy="21.226" fx="68.4" cy="21.226" cx="68.4" gradientTransform="matrix(1.72215 0 0 1.69498 -49.395 -14.078)" gradientUnits="userSpaceOnUse" id="radialGradient11553" xlink:href="#linearGradient9286"/><radialGradient gradientUnits="userSpaceOnUse" gradientTransform="matrix(1.35152 0 0 1.71757 -63.706 -153.956)" r="22.466" fy="214.551" fx="181.227" cy="214.551" cx="181.227" id="radialGradient5811" xlink:href="#linearGradient5805"/><clipPath id="clipoutline1" clipPathUnits="userSpaceOnUse"><path d="M54.1 12.5L12.9 54.7C-2.7 70.3 23 69 32.3 74.9c4.3 2.8-13.8 6.4-10.1 10.1 3.6 3.7 21.7 7.1 25.3 10.7 3.6 3.7-7.3 7.6-3.7 11.3 3.5 3.7 11.9.2 13.4 8.6 1.1 6.2 15.4 3.1 21.8-2.2 4-3.4-6.9-3.4-3.3-7.1 9-9.1 17-4.1 20.3-12.5 1.8-4.5-13.6-7.7-9.5-10.6 9.8-6.9 45.8-10.4 29.2-27L73 12.5c-5.3-5-14-5-18.9 0zm-9.9 64.7c.9 0 30.8 4 19.3 7.1-4.4 1.2-24.6-7.1-19.3-7.1zm57.2 16.6c0 2.1 16.3 3.3 15.4-.5-1.3-6.4-13.6-5.9-15.4.5zm-69.5 11.1c3.7 3.2 9.3-.7 11.1-5.2-3.6-4.7-16.9.3-11.1 5.2zm67.5-6.7c-4.6 4.2.8 8.6 5.3 5.7 1.2-.8-.1-4.7-5.3-5.7z" id="outline1"/></clipPath><clipPath id="clipPath9086" clipPathUnits="userSpaceOnUse"><use height="300" width="400" y="0" x="0" class="low-specularity" xlink:href="#outline1" id="use9088" fill="#fff" fill-opacity="1"/></clipPath></defs><style id="style26" type="text/css">.low-specularity{opacity:.25}</style><g id="g9139" transform="matrix(.99658 0 0 .99627 3.207 1.297)" display="inline"><g id="g6035" transform="translate(0 .488)" opacity=".783" fill="#000" fill-opacity="1"><path id="path5987" d="M54.1 12.988l-41.2 42.2c-15.6 15.6 10.1 14.3 19.4 20.2 4.3 2.8-13.8 6.4-10.1 10.1 3.6 3.7 21.7 7.1 25.3 10.7 3.6 3.7-7.3 7.6-3.7 11.3 3.5 3.7 11.9.2 13.4 8.6 1.1 6.2 15.4 3.1 21.8-2.2 4-3.4-6.9-3.4-3.3-7.1 9-9.1 17-4.1 20.3-12.5 1.8-4.5-13.6-7.7-9.5-10.6 9.8-6.9 45.8-10.4 29.2-27L73 12.988c-5.3-5-14-5-18.9 0zm47.3 81.3c0 2.1 16.3 3.3 15.4-.5-1.3-6.4-13.6-5.9-15.4.5zm-69.5 11.1c3.7 3.2 9.3-.7 11.1-5.2-3.6-4.7-16.9.3-11.1 5.2zm67.5-6.7c-4.6 4.2.8 8.6 5.3 5.7 1.2-.8-.1-4.7-5.3-5.7z" filter="url(#filter6017)"/><path d="M54.1 13.965l-41.2 42.2c-15.6 15.6 10.1 14.3 19.4 20.2 4.3 2.8-13.8 6.4-10.1 10.1 3.6 3.7 21.7 7.1 25.3 10.7 3.6 3.7-7.3 7.6-3.7 11.3 3.5 3.7 11.9.2 13.4 8.6 1.1 6.2 15.4 3.1 21.8-2.2 4-3.4-6.9-3.4-3.3-7.1 9-9.1 17-4.1 20.3-12.5 1.8-4.5-13.6-7.7-9.5-10.6 9.8-6.9 45.8-10.4 29.2-27L73 13.965c-5.3-5-14-5-18.9 0zm47.3 81.3c0 2.1 16.3 3.3 15.4-.5-1.3-6.4-13.6-5.9-15.4.5zm-69.5 11.1c3.7 3.2 9.3-.7 11.1-5.2-3.6-4.7-16.9.3-11.1 5.2zm67.5-6.7c-4.6 4.2.8 8.6 5.3 5.7 1.2-.8-.1-4.7-5.3-5.7z" id="path6021" opacity=".576" filter="url(#filter6031)"/></g><path id="use7631" d="M54.1 12.5L12.9 54.7C-2.7 70.3 23 69 32.3 74.9c4.3 2.8-13.8 6.4-10.1 10.1 3.6 3.7 21.7 7.1 25.3 10.7 3.6 3.7-7.3 7.6-3.7 11.3 3.5 3.7 11.9.2 13.4 8.6 1.1 6.2 15.4 3.1 21.8-2.2 4-3.4-6.9-3.4-3.3-7.1 9-9.1 17-4.1 20.3-12.5 1.8-4.5-13.6-7.7-9.5-10.6 9.8-6.9 45.8-10.4 29.2-27L73 12.5c-5.3-5-14-5-18.9 0zm47.3 81.3c0 2.1 16.3 3.3 15.4-.5-1.3-6.4-13.6-5.9-15.4.5zm-69.5 11.1c3.7 3.2 9.3-.7 11.1-5.2-3.6-4.7-16.9.3-11.1 5.2zm67.5-6.7c-4.6 4.2.8 8.6 5.3 5.7 1.2-.8-.1-4.7-5.3-5.7z" fill="#000" fill-opacity="1"/><path id="use7639" d="M54.1 12.5L12.9 54.7C-2.7 70.3 23 69 32.3 74.9c4.3 2.8-13.8 6.4-10.1 10.1 3.6 3.7 21.7 7.1 25.3 10.7 3.6 3.7-7.3 7.6-3.7 11.3 3.5 3.7 11.9.2 13.4 8.6 1.1 6.2 15.4 3.1 21.8-2.2 4-3.4-6.9-3.4-3.3-7.1 9-9.1 17-4.1 20.3-12.5 1.8-4.5-13.6-7.7-9.5-10.6 9.8-6.9 45.8-10.4 29.2-27L73 12.5c-5.3-5-14-5-18.9 0zm47.3 81.3c0 2.1 16.3 3.3 15.4-.5-1.3-6.4-13.6-5.9-15.4.5zm-69.5 11.1c3.7 3.2 9.3-.7 11.1-5.2-3.6-4.7-16.9.3-11.1 5.2zm67.5-6.7c-4.6 4.2.8 8.6 5.3 5.7 1.2-.8-.1-4.7-5.3-5.7z" fill="none"/><use clip-path="url(#clipPath9086)" transform="translate(.605 .604) scale(.99054)" height="300" width="400" y="0" x="0" class="low-specularity" xlink:href="#outline1" id="use7641" opacity=".67" fill="url(#linearGradient9175)" filter="url(#filter8490)"/><path d="M16.565 57.04c-11.202 11.1 8.477 7.972 23.615 13.926l31.285-55c-4.743-4.845-10.798-4.44-15.138 0z" id="path7643" opacity=".505" fill="url(#shinySpecular-4)" stroke="none"/><path id="icecap-7" d="M70.5 15.5l16.3 16.6c1.5 1.5 1.5 4.6.6 5.5L79.3 31l-1.6 9.7-6.7-3.6L60.1 44l-3.6-14.5-5.8 12.6-14.5-.1c-2.8 0-2.4-2.9.5-5.8 5.7-6.3 16.8-17 20.3-20.7 3.6-3.7 9.9-3.6 13.5 0z" fill="url(#IcecapTip-6)" opacity="1"/><path transform="translate(-11.722 -13.864) scale(.52965)" id="path8566" d="M113 203.5s3.34 5.1 3 7.5c-.668 4.709-10.81 7.058-8.563 11.25 2.22 4.141 10.222 1.794 16.938 6.125 6.688 4.313 4.89 13.101 9.75 15.313 9.48 4.312 34.375-7.438 33.125-7.188s-24.57 5.095-29.82.845c-5.986-4.845-7.702-8.23-12.118-11.095-4.137-2.685-9.95-3.78-11.302-5.979-1.353-2.198 2.71-5.034 2.99-9.271.169-2.544-4-7.5-4-7.5z" opacity=".217" fill="url(#radialGradient9177)" fill-opacity="1" fill-rule="evenodd" stroke="none"/><path d="M113 203.5s3.34 5.1 3 7.5c-.668 4.709-10.81 7.058-8.563 11.25 2.22 4.141 10.222 1.794 16.938 6.125 6.688 4.313 4.89 13.101 9.75 15.313 9.48 4.312 34.375-7.438 33.125-7.188-41.34.157-33.625-10.495-49.563-17.5-2.302-1.012-.968-3.763-.687-8 .169-2.544-4-7.5-4-7.5z" id="path8718" transform="translate(-11.722 -13.864) scale(.52965)" opacity=".276" fill="url(#radialGradient8574)" fill-opacity="1" fill-rule="evenodd" stroke="none" filter="url(#filter8732)"/><path transform="translate(-11.722 -13.864) scale(.52965)" id="path8736" d="M183.25 181.75c37.104-13.655 49.024-15.53 61.25-27.75-14.16 11.954-44.099 18.366-68.5 29z" opacity=".453" fill="url(#radialGradient8744)" fill-opacity="1" fill-rule="evenodd" stroke="none"/><path d="M183.25 181.75c61.104-21.655 50.774-21.53 61.25-27.75-19.428 7.437-55.734 8.23-68.5 29z" id="path8746" transform="translate(-11.722 -14.791) scale(.52965)" opacity=".512" fill="url(#radialGradient8768)" fill-opacity="1" fill-rule="evenodd" stroke="none" filter="url(#filter8764)"/><ellipse ry="2.438" rx="7.938" cy="199.063" cx="229.938" transform="translate(-12.384 -14.791) scale(.52965)" id="path8864" style="marker:none" display="inline" overflow="visible" visibility="visible" opacity=".286" fill="url(#linearGradient8912)" fill-opacity="1" fill-rule="nonzero" stroke="none" stroke-width="1" enable-background="accumulate"/><ellipse ry="2.438" rx="7.938" cy="199.063" cx="229.938" style="marker:none" id="path8874" transform="matrix(.71315 0 0 1.14078 -54.578 -134.955)" display="inline" overflow="visible" visibility="visible" opacity=".621" fill="url(#linearGradient8910)" fill-opacity="1" fill-rule="nonzero" stroke="none" stroke-width="1" filter="url(#filter8906)" enable-background="accumulate"/><path transform="translate(-11.722 -14.239) scale(.52965)" id="path8914" d="M214.125 203.75c3.77 3.484 24.756 5.272 28.188-1-6.737 4.784-21.717 3.103-28.188 1z" fill="url(#radialGradient8922)" fill-opacity="1" fill-rule="evenodd" stroke="none" filter="url(#filter8980)"/><ellipse ry="3.082" rx="6.508" cy="199.063" cx="229.938" style="marker:none" id="path8984" transform="matrix(.20425 -.10356 .23952 .4724 5.755 30.287)" display="inline" overflow="visible" visibility="visible" opacity=".286" fill="url(#linearGradient8990)" fill-opacity="1" fill-rule="nonzero" stroke="none" stroke-width="1" enable-background="accumulate"/><ellipse ry="2.14" rx="7.056" cy="199.063" cx="229.938" transform="matrix(.27502 -.13944 .51588 1.01747 -65.353 -69.3)" id="path8986" style="marker:none" display="inline" overflow="visible" visibility="visible" opacity=".621" fill="url(#linearGradient8992)" fill-opacity="1" fill-rule="nonzero" stroke="none" stroke-width="1" filter="url(#filter8906)" enable-background="accumulate"/><path d="M217.058 201.94c3.769 3.485 26.97 8.912 25.255.81-3.318 5.323-18.785 1.293-25.255-.81z" id="path8988" transform="matrix(.20425 -.10356 .23952 .4724 6.26 30.65)" fill="url(#radialGradient8994)" fill-opacity="1" fill-rule="evenodd" stroke="none" filter="url(#filter8980)"/><path transform="translate(-11.722 -13.864) scale(.52965)" id="path8996" d="M68.25 186c0-.62 38.846 11.838 45.5 18.5-5.471-5.338-33.16-17.616-37.375-17.75-4.215-.134-7.625-.5-8.125-.75z" fill="url(#radialGradient9004)" fill-opacity="1" fill-rule="evenodd" stroke="none"/><g transform="matrix(.87901 -.193 .23383 .69593 -20.21 36.726)" id="g9018" visibility="visible" fill-opacity="1" fill-rule="nonzero" stroke="none" stroke-width="1"><ellipse ry="2.438" rx="7.938" cy="199.063" cx="229.938" transform="translate(-84.416 -4.728) scale(.52965)" id="path9006" style="marker:none" display="inline" overflow="visible" opacity=".286" fill="url(#linearGradient9023)" enable-background="accumulate"/><ellipse ry="2.438" rx="7.938" cy="199.063" cx="229.938" style="marker:none" id="path9008" transform="matrix(.71315 0 0 1.14078 -126.61 -124.892)" display="inline" overflow="visible" opacity=".621" fill="url(#linearGradient9025)" filter="url(#filter8906)" enable-background="accumulate"/></g><path transform="translate(-11.623 -14.427) scale(.52965)" id="path9038" d="M80.5 220.063s2.103 5.65 7.875 5.937c5.839.29 12.503-7.007 13.063-9.625-1 2.25-6.59 9.033-13.813 8.938-4.1-.054-7.125-5.25-7.125-5.25z" opacity=".616" fill="url(#radialGradient9046)" fill-opacity="1" fill-rule="evenodd" stroke="none" filter="url(#filter9068)"/><path xlink:href="#use7639" id="87235" d="M63.4 10.207c-3.097 0-6.11 1.12-8.257 3.31l-41.2 42.2a1.457 1.457 0 01-.013.012c-3.766 3.765-4.684 6.246-4.451 7.638.116.696.48 1.29 1.209 1.924.728.633 1.814 1.248 3.138 1.803 2.649 1.11 6.21 1.99 9.711 2.949 3.5.959 6.941 1.976 9.543 3.627a1.457 1.457 0 01.016.01c.396.258.759.573 1.021 1.027a2.36 2.36 0 01.26 1.57c-.207 1.013-.84 1.535-1.477 2.02-1.271.97-3.034 1.772-4.789 2.625-1.755.852-3.492 1.748-4.37 2.463-.44.357-.6.66-.595.638.007-.021-.128-.263.083-.052a1.457 1.457 0 01.013.013c.552.568 2.266 1.52 4.46 2.39 2.193.868 4.885 1.747 7.597 2.628 2.711.88 5.443 1.763 7.765 2.67 2.323.907 4.215 1.747 5.465 2.998a1.457 1.457 0 01.014.014c.623.64 1.038 1.431 1.13 2.246.094.814-.117 1.572-.429 2.213-.623 1.28-1.63 2.266-2.543 3.216-.912.95-1.73 1.864-2.025 2.471-.148.304-.168.486-.155.608.014.121.045.261.323.546a1.457 1.457 0 01.015.016c1.193 1.26 3.786 1.432 6.723 2.12 1.469.343 3.02.873 4.336 2.01 1.316 1.14 2.295 2.865 2.715 5.214a1.457 1.457 0 010 .002c.176.995.706 1.485 1.97 1.88 1.265.396 3.18.456 5.297.145 4.231-.62 9.267-2.69 12.164-5.088.165-.142.124-.113.18-.185a9.917 9.917 0 00-1.396-.832c-.89-.445-1.93-.853-2.733-1.87-.402-.508-.702-1.3-.584-2.083.118-.784.547-1.434 1.125-2.028a1.457 1.457 0 01.008-.008c4.746-4.798 9.437-5.965 12.95-6.896 1.756-.466 3.196-.894 4.31-1.596 1.113-.702 1.987-1.65 2.72-3.518a1.457 1.457 0 01.004-.007c.081-.203.079-.24-.03-.479-.11-.238-.404-.619-.874-1.027-.94-.817-2.51-1.72-4.062-2.58-1.552-.86-3.068-1.644-4.164-2.66-.549-.509-1.1-1.14-1.166-2.114-.066-.974.567-1.867 1.306-2.39a1.457 1.457 0 01.004-.002c2.746-1.934 6.882-3.417 11.393-4.98 4.51-1.565 9.375-3.161 13.328-5.01 3.953-1.85 6.872-3.997 7.797-6.143.462-1.073.54-2.155.056-3.559-.484-1.404-1.593-3.115-3.566-5.088a1.457 1.457 0 01-.012-.011L72 13.559l-.002-.002c-2.36-2.226-5.5-3.35-8.598-3.35zm45.94 79.998c-2.64.095-5.066 1.305-6.1 3.19.293.11.552.22 1.02.328 1.375.316 3.32.542 5.21.584 1.892.041 3.762-.114 4.915-.434.52-.144.807-.316.931-.406-.26-1.08-.893-1.846-1.921-2.414-1.074-.593-2.548-.902-4.055-.848zm-70.51 9.088c-2.09-.145-4.72.673-6.004 1.705-.642.516-.888.993-.912 1.31-.024.318.066.752.926 1.48a1.457 1.457 0 01.014.01c1.353 1.171 2.867 1.06 4.61.11 1.465-.798 2.767-2.299 3.634-3.875-.59-.381-1.31-.673-2.268-.74zm61.033.611c-.461.579-.728 1.1-.756 1.473-.037.508.135.904.53 1.277.74.699 2.327.986 3.957.11a1.983 1.983 0 00-.344-.815c-.502-.73-1.654-1.538-3.387-2.045z" fill="none" stroke="url(#radialGradient11553)" stroke-width="1.004" stroke-miterlimit="4" stroke-dasharray="none" stroke-opacity="1" filter="url(#filter9298)"/><path d="M95.5 172c-5.09 1.502-21.592 7.737-19.25 12.5 2.244 4.563 40.611 6.401 46.5 20 2.568 5.93-5.892 10.403-3.75 16.5 1.65 4.695 14.412 16.49 22.486 22.068 6.333 4.374 14.651-3.523 11.264-10.068-5.396-10.428 18.443-23.2 29.25-29 6.305-3.384-13-20-13-20l-73.5-12z" id="path5897" transform="translate(-5.81 -7.704) scale(.4883)" opacity=".325" fill="url(#linearGradient5905)" fill-opacity="1" fill-rule="evenodd" stroke="none" filter="url(#filter5983-5)"/><path d="M41.742 78.533c2.232 1.64 6.637.65 9.282 1.842 6.35 2.859 14.155 6.045 12.719.404l-1.616 1.342-.031-2.557-3.752.916s-2.907-2.333-4.239-3.102c-.278-.16-1.708 1.293-1.708 1.293l-.257-1.544a47.62 47.62 0 00-5.315-.272c-3.88.031-6.499.638-5.083 1.678z" id="path5783" fill="url(#linearGradient5801)" fill-opacity="1" fill-rule="evenodd" stroke="none"/><path d="M182.75 187.25c-1.76 6.478 21.628 15.28 19.875 19.75-3.859 9.842-24.976 3.138-41.125 23.75-2.313 2.953 3.25 13.5 2.5 12.25s-6.465-9.963-5-14.25c4.594-13.445 49.013-18.457 40.875-24.875-4.68-3.69-21.506-13.887-17.125-16.625z" id="path5803" transform="translate(-5.81 -7.704) scale(.4883)" opacity=".478" fill="url(#radialGradient5811)" fill-opacity="1" fill-rule="evenodd" stroke="none" filter="url(#filter5845)"/><ellipse ry="1.063" rx="2.563" cy="201.188" cx="233.938" style="marker:none" id="path6041" transform="translate(-6.36 -8.01) scale(.4883)" display="inline" overflow="visible" visibility="visible" opacity=".586" fill="#fff" fill-opacity="1" fill-rule="nonzero" stroke="none" stroke-width="1" enable-background="accumulate"/><ellipse ry="1.063" rx="2.563" cy="201.188" cx="233.938" transform="matrix(.30966 0 0 .4883 27.528 1.574)" id="path6043" style="marker:none" display="inline" overflow="visible" visibility="visible" opacity=".586" fill="#fff" fill-opacity="1" fill-rule="nonzero" stroke="none" stroke-width="1" enable-background="accumulate"/><ellipse ry="1.063" rx="2.563" cy="201.188" cx="233.938" transform="matrix(.54786 0 0 .4883 -92.102 1.116)" id="path6045" style="marker:none" display="inline" overflow="visible" visibility="visible" opacity=".586" fill="#fff" fill-opacity="1" fill-rule="nonzero" stroke="none" stroke-width="1" enable-background="accumulate"/><path style="marker:none" d="M36.672 76.529c-7.153 4.424-18.274 6.034-6.104 8.972-1.45-3.228 3.139-2.872 6.104-8.972z" id="path5049" display="inline" overflow="visible" visibility="visible" opacity=".251" fill="url(#linearGradient5822)" fill-opacity="1" fill-rule="nonzero" stroke="none" stroke-width="2.048" enable-background="accumulate"/><path transform="translate(57.75 32.997) scale(.4883)" id="path10207" d="M8.834 171.647s22.592-2.128 27.818-8.646c3.058-3.814-12.151-8.264-8.868-12 12.35-14.054 22.73-13.468 37.05-19.354 14.32-5.886 9.036-8.769 4.404-11.353-7.932-4.427-25.587-9.143-19.747-19.647 5.877-10.57 57.343-25.25 57.343-25.25 15.596-5.328 13.64-14.964 6-23l-46-45.75s2.283 43.389-7 62c-11.471 23-72.544 48.662-47 51.5 9 1 13.32 4.07 17 11 7.577 14.269-21 40.5-21 40.5z" style="marker:none" color="#000" display="inline" overflow="visible" visibility="visible" opacity=".363" fill="url(#linearGradient1030)" fill-opacity="1" fill-rule="nonzero" stroke="none" stroke-width="2" filter="url(#filter10997-7)" enable-background="accumulate"/></g></svg>