<svg xmlns="http://www.w3.org/2000/svg" xmlns:xlink="http://www.w3.org/1999/xlink" height="800" width="1200" enable-background="new" version="1.0" viewBox="-123.83175 -282.674 1073.2085 1696.044"><defs><linearGradient id="a"><stop offset="0" stop-color="#e4e6e8"/><stop offset="1" stop-color="#4f7b8c" stop-opacity="0"/></linearGradient><linearGradient id="d"><stop offset="0" stop-opacity="0"/><stop offset=".199" stop-opacity="0"/><stop offset="1"/></linearGradient><linearGradient id="c"><stop offset="0" stop-color="#a6c0ce"/><stop offset="1" stop-color="#fff" stop-opacity="0"/></linearGradient><linearGradient id="b"><stop offset="0" stop-color="#469ff9"/><stop offset=".673" stop-color="#c2cfdc" stop-opacity=".498"/><stop offset="1" stop-color="#47a0fa" stop-opacity="0"/></linearGradient><linearGradient gradientUnits="userSpaceOnUse" y2="331.371" x2="377.238" y1="139.977" x1="377.238" id="i" xlink:href="#a"/><radialGradient gradientUnits="userSpaceOnUse" gradientTransform="matrix(0 -1.79968 .93734 0 -188.718 1320.5)" r="329.176" fy="603.788" fx="377.238" cy="603.788" cx="377.238" id="f" xlink:href="#b"/><radialGradient gradientUnits="userSpaceOnUse" gradientTransform="matrix(.85177 0 0 .96139 -1122.477 348.037)" r="336.143" fy="513.244" fx="1760.704" cy="513.244" cx="1760.704" id="g" xlink:href="#c"/><radialGradient r="335.631" fy="525.669" fx="377.238" cy="525.669" cx="377.238" gradientTransform="matrix(2.0137 0 0 2.2176 -382.405 -635.952)" gradientUnits="userSpaceOnUse" id="h" xlink:href="#d"/><filter id="e"><feGaussianBlur stdDeviation="16.088"/></filter></defs><path d="M391.176 63.896c-7.7 4.615-13.829 15.271-25.852 24.963l.951-.87C265.206 193.194 181.252 316.795 130.127 453.624a10.178 10.178 0 01-.018.047C91.555 555.33 67.651 662.362 54.383 770.55l.053-.576c-1.668 25.555-9.698 48.12-5.053 67.533.512.258 1.305.403 3.29.533 3.373.221 8.483-.491 14.67.188 45.22 3.706 91.662 10.15 134.993 28.29a10.178 10.178 0 01.04.016c71.518 30.302 129.689 82.611 181.62 136.977 3.416 3.494 11.807 3.563 14.45-.125a10.178 10.178 0 011.28-1.467c44.724-42.3 89.17-88.794 146.711-118.59 38.343-20.634 80.398-34.52 123.668-40.232l-1.427.295c13.566-3.823 26.616-2.79 37.994-2.87 11.054-.077 20.076-1.066 27.79-5.74.99-.932 1.391-1.9 1.444-4.806.059-3.225-.821-7.822-1.67-12.508a10.178 10.178 0 01-.1-.688c-15.875-142.617-43.829-285.288-103.48-415.383a10.178 10.178 0 01-.015-.033C573.28 275.103 491.148 159.806 391.176 63.896z" opacity=".585" fill="#040608" filter="url(#e)" enable-background="new" transform="translate(20.84 30.328)"/><path d="M399.028 81.11a10.465 10.465 0 00-7.875 3.218c-29.59 30.878-59.664 65.523-86.844 98.5a9.46 9.46 0 00-.093.125c-66.978 83.53-117.888 169.356-154.782 261.25-34.367 85.603-54.461 159.657-72.75 267.531-4.004 23.623-8.051 52.248-10.843 75.282-1.396 11.517-2.48 21.62-3.094 29.093-.307 3.737-.486 6.802-.531 9.282-.023 1.24-.027 2.273.093 3.562.06.645.117 1.332.438 2.5s.059 3.539 4.75 6.438c2.531 1.564 2.872 1.255 3.5 1.406.628.15 1.114.26 1.625.344 1.021.166 2.105.274 3.344.406 2.476.264 5.542.51 8.78.687 25.681 1.406 63.55 7.932 88.657 15.282 16.95 4.962 28.11 9.067 44.656 16.406 3.823 1.696 7.329 3.246 9.938 4.375 1.304.564 2.375 1.004 3.187 1.344.382.16.721.282 1.032.406.02.008.043.024.062.031.005.002.026-.003.031 0 .011.004.02.027.032.031.116.06.236.112.437.22a.213.213 0 00-.094-.095c.06.022.083.037.157.063.132.047.275.124.593.219.126.037.222.108.375.187-.073-.017-.35-.013-.406-.031.733.395 1.604.884 2.781 1.531 2.801 1.54 6.65 3.674 10.844 6.031 40.522 22.774 70.826 46.258 119.219 92.625a969.416 969.416 0 0016.812 15.75c2.248 2.05 4.115 3.737 5.594 5a47.9 47.9 0 002.031 1.657c.334.255.656.516 1.22.875.28.179.626.387 1.25.687.622.3 1.242.89 4.124 1.031 3.452.169 4.169-.59 4.875-.906.706-.316 1.07-.53 1.375-.719.612-.376.956-.639 1.313-.906.713-.534 1.356-1.077 2.156-1.75 1.6-1.345 3.642-3.168 6.094-5.375 4.903-4.413 11.39-10.409 18.375-17.031 40.03-37.96 59.408-54.006 87.28-72.5 60.87-40.389 115.11-58.316 198.376-65.344l6.75-.562a10.465 10.465 0 009.594-10.438v-3.969c0-8.274-1.97-25.362-4.625-46.53-2.656-21.17-6.054-45.263-9.125-63.563-18.267-108.845-39.035-185.505-73.844-272.188-31.359-78.09-76.253-156.971-129.906-228.375-.12-.16-.246-.316-.375-.469-36.115-42.75-71.05-87.621-109.157-129.218a10.465 10.465 0 00-7.406-3.407z" fill="#0278dc"/><path d="M377.238 641.594l78.306-509.404-75.275-84.36-81.765 90.849 78.734 502.915-179.965-351.067-60.06 111.518 240.025 239.55-277.36-144.407-24.161 95.792 301.52 48.614L54.51 692.86l-9.83 117.607 332.558-168.872L184.736 833.58l76.13 39.68 116.372-231.665-46.708 289.292 46.708 42.715 47.617-42.059-47.617-289.948 119.066 232.313 71.925-40.643-190.991-191.67L703.03 808.937l-5.52-116.441-320.273-50.902 300.62-43.398-25.113-98.34-275.507 141.738 242.017-237.716-59.072-122.79z" style="marker:none" overflow="visible" opacity=".5" fill="url(#f)" fill-rule="evenodd" transform="translate(20.84 30.328)"/><path style="marker:none" d="M42.002 807.892c19.38-128.578 73.781-383.729 158.81-534.197 50.449-89.275 132.06-132.202 176.426-132.202 43.069 0 138.866 59.218 181.769 142.853C636.664 435.73 671.113 629.292 714.288 810.69c-206.338 10.845-209.669 81.032-337.05 162.33-72.282-50.103-162.562-150.814-335.236-165.129z" overflow="visible" fill="url(#g)" fill-rule="evenodd" transform="translate(20.84 30.328)" opacity=".701"/><path d="M377.238 49.968c-16.167 5.66-23.426 22.936-35.991 33.428-82.27 89.765-153.88 190.492-202.28 302.646C92.13 491.988 64.87 605.498 48.827 719.923c-3.45 25.468-7.188 51.007-8.62 76.656 3.077 17.249 23.874 12.058 36.213 14.143 67.915 6.236 134.457 29.783 189.443 70.47 36.13 25.95 68.6 56.689 100.156 87.839 14.596 10.444 26.417-6.267 35.81-15.34 44.014-42.126 90.466-83.317 146.38-108.947 47.765-23.247 100.739-32.793 153.333-36.608 16.014-4.012 8.98-24.226 8.222-35.906-16.258-150.891-51.17-301.67-120.706-437.425-33.572-65.892-73.876-128.534-122.135-184.666-27.528-33.073-54.375-66.77-83.843-98.166l-2.77-1.443z" fill="url(#h)" enable-background="new" transform="translate(20.84 30.328)"/><path d="M44.998 817.204c32.819-241.8 96.974-383.27 163.151-504.427 58.982-107.984 125.042-172.552 169.408-172.552 43.069 0 120.404 82.542 178.888 178.874 94.529 155.702 121.457 253.824 156.499 492.628z" style="marker:none" overflow="visible" fill="url(#i)" fill-rule="evenodd" enable-background="new" transform="translate(20.84 30.328)"/><path d="M375.019 997.538c-35.382-34.697-57.455-54.27-81.707-72.451-45.841-34.369-95.505-56.93-148.293-67.366-20.498-4.052-51.778-7.914-73.087-9.024-10.01-.52-18.396-1.145-18.638-1.387-1.248-1.247 11.266-96.251 17.763-134.851 30.447-180.91 83.573-321.467 171.315-453.257 39.748-59.703 95.196-127.108 145.603-177l10.104-10 20.278 20.5c104.378 105.516 184.786 227.08 237.462 359.007 36.38 91.111 61.665 191.952 78.61 313.493 5.326 38.21 9.753 75.956 9.404 80.193l-.314 3.807-7 .233c-54.981 1.832-91.014 7.622-129.515 20.81-57.058 19.543-103.783 50.51-165.985 110.004-21.515 20.579-42.061 39.466-42.864 39.403-.35-.027-10.761-9.979-23.136-22.114zm49.303-25.729c40.19-38.11 60.323-54.83 88.67-73.64 62.1-41.205 118.87-59.933 203.277-67.057l6.75-.57V826.6c0-12.265-7.518-72.267-13.581-108.397-18.186-108.361-38.693-183.955-73.246-270-30.98-77.145-75.447-155.316-128.56-226-36.296-42.965-71.164-87.716-108.888-128.896-29.337 30.614-59.276 65.07-86.332 97.896C246.004 274.02 195.695 358.95 159.201 449.85c-34.118 84.981-53.963 157.941-72.172 265.352-7.93 46.78-16.104 114.205-14.002 115.505.62.383 6.159.972 12.31 1.308 26.837 1.47 64.85 8.018 91.034 15.684 17.264 5.054 29.126 9.41 45.96 16.876 7.598 3.37 13.97 6.127 14.16 6.127.19 0 7.247 3.879 15.683 8.62 41.272 23.195 72.643 47.552 121.345 94.215 12.65 12.12 23.586 22.066 24.303 22.101.717.035 12.642-10.688 26.5-23.829zm-92.336-47.31c2.424-6.903 33.818-52.282 50.175-71.946 4.872-5.857 8.858-11.335 8.858-12.174 0-1.95-32.91-30.8-50.162-45.122-7.328-6.083-24.269-16.73-23.788-16.73 2.65 0 52.63 33.352 69.45 47.029 5.5 4.472 10.675 8.128 11.5 8.124.825-.004 7.35-4.753 14.5-10.554 13.023-10.565 61.51-47.444 63.686-47.423.638.006-.416 1.243-2.341 2.75-18.738 14.66-68.845 59.426-68.845 61.953 0 .853 3.076 5.206 6.836 9.673 16.077 19.102 44.957 50.892 52.373 64.463 4.086 7.476 2.528 5.939-8.108-8-15.3-20.05-54.937-58.84-58.235-58.84-3.083 0-40.996 46.003-57.166 67.01-8.378 10.883-9.598 12.25-8.733 9.788zm212.084-74.132c-20.126-26.596-44.067-55.38-70.421-84.665-19.241-21.382-73.192-75-75.466-75-2.39 0-39.578 36.182-62.805 61.106-29.935 32.124-63.113 69.44-85.073 98.297-16.206 21.298-16.854 20.538-2.316-2.712 31.785-50.832 80.085-113.481 121.398-161.566 5.847-6.807 10.64-12.882 10.651-13.5.025-1.401-21.816-22.709-39.352-38.392-54.087-48.373-132.318-102.127-186.622-127.83-7.273-3.442-12.437-6.992-11.821-7.197 3.174-1.058 76.591 34.31 102.276 48.813 48.782 27.547 106.83 67.664 144.06 99.56 4.764 4.082 9.012 7.42 9.44 7.42.428 0 4.676-3.338 9.44-7.42 37.328-31.98 95.15-71.941 144.048-99.553 26.209-14.8 89.971-44.487 95.437-44.45.96.005-23.919 12.436-33.078 17.313-51.918 27.641-105.834 66.191-158.514 113.336-17.554 15.71-39.377 37.001-39.353 38.395.011.616 5.844 7.922 12.963 16.237 23.938 27.96 49.272 60.375 71.232 91.143 24.462 34.274 59.732 85.77 58.319 87.178-.178.178-9.796-10.372-14.443-16.513zM162.916 832.66c-.11-5.643 19.219-77.401 29.74-109.267 4.142-12.545 7.27-23.488 6.953-24.317-1.257-3.274-36.821-18.52-62.59-26.83-18.826-6.072-40.228-10.494-39.691-11.03.823-.824 37.137 5.545 53.19 9.458 17.332 4.225 33.274 8.986 46.182 13.792 7.564 2.817 8.291 2.922 9.644 1.392.805-.91 6.464-11.67 12.576-23.91 12.785-25.604 38.167-71.34 43.202-78.59 4.179-6.018-1.324 4.824-11.234 27.84-7.418 17.228-32.11 74.635-33.413 79.824-.5 1.99.425 2.97 6.733 7.142 19.218 12.712 67.171 50.055 77.268 60.765 4.83 5.124-3.694-1.019-16.874-10.492-22.047-15.846-70.456-44.914-73.067-42.747-3.263 2.708-24.789 55.814-35.564 87.74-6.852 20.301-12.994 42.315-13.055 39.23zm470.399 2.888c-.334-.825-9.382-30.57-13.176-41.845-10.767-31.993-32.342-85.28-35.636-88.013-2.622-2.177-54.501 30.103-76.075 45.718-13.84 10.017-14.394 10.067-4.49.404 12.942-12.63 52.198-43.5 73.072-57.205l2.43-1.596-3.831-10.404c-8.444-22.928-21.809-55.005-27.85-68.618-3.514-7.916-17.42-32.87-17.42-33.246 0-1.21 18.17 25.864 24.259 36.647 3.256 5.767 12.446 24.615 20.42 40.298 16.979 33.388 13.261 30.776 33.651 23.641 19.76-6.914 63.695-17.916 79.69-19.962 8.922-1.14-9.225 3.605-28.675 9.81-28.65 9.14-61.908 24.388-63.265 27.926-.324.843 2.577 11.11 6.445 22.817 13.504 40.86 32.818 110.468 31.485 113.996-.269.712-.652.575-1.034-.368zM279.582 548.302c17.609-31.736 60.907-94.837 104.308-143.754 2.27-2.56 4.129-5.324 4.129-6.143 0-2.436-25.198-25.972-42.968-40.135-18.913-15.074-52.11-34.15-69.462-45.755-6.738-4.506-32.095-19.737-32.095-19.988 0-1.013 35.608 18.17 49.047 25.869 23.438 13.429 69.917 41.502 92.646 60.535 6.418 5.374 12.192 9.77 12.832 9.77.64 0 6.618-4.57 13.285-10.157 25.094-21.026 66.504-53.034 92.89-67.393 9.204-5.008 42.68-18.502 42.68-17.746 0 .258-28.643 14.913-35.93 19.79-15.75 10.543-51.127 37.645-66.665 50.363-13.921 11.393-36.26 32.87-36.26 34.86 0 .812 1.858 3.57 4.129 6.13 36.467 41.102 77.113 95.383 92.377 125.038 7.762 15.08 16.28 26.796 15.407 26.796-.298 0-3.8-4.613-7.783-10.25-8.707-12.324-39.682-59.65-50.043-71.902-20.159-23.838-61.453-66.528-64.352-66.528-1.54 0-36.74 35.781-51.156 52-15.625 17.58-51.094 68.902-61.806 84.1-4.362 6.187-8.16 11.25-8.443 11.25-.282 0 1.173-3.038 3.233-6.75z" fill="#040608"/></svg>