<svg height="156.067mm" viewBox="0 0 558.081 589.859" width="147.659mm" xmlns="http://www.w3.org/2000/svg"><path d="m83.106 527.503c-1.89 0-2.835-1.328-2.835-3.984 0-2.655 1.379-5.617 4.137-8.886 4.596-5.515 10.9797-8.707 19.151-9.575l4.213-.23c9.295 0 16.036 3.702 20.224 11.107 2.502 4.545 3.753 9.78 3.753 15.704 0 2.451-.204 5.03-.613 7.737-1.481 9.091-5.004 16.802-10.571 23.135-6.128 6.996-13.278 10.494-21.449 10.494-8.12 0-13.278-2.272-15.474-6.817-.664-1.43-.996-2.937-.996-4.52 0-1.634.434-3.345 1.302-5.132 1.6853-3.269 3.9837-4.903 6.895-4.903.2553 0 .4083.153.459.46.1027.255.076.536-.08.842-.1027.307-.2817.46-.537.46-1.736 0-3.2423 1.123-4.519 3.37-.8173 1.583-1.226 3.039-1.226 4.367s.2553 2.554.766 3.677c1.6347 3.473 5.5417 5.209 11.721 5.209 6.996 0 13.328-3.575 18.997-10.725 5.107-6.435 8.401-13.993 9.882-22.674.511-2.809.766-5.465.766-7.967 0-5.567-1.251-10.265-3.753-14.095-3.319-5.158-8.528-7.737-15.627-7.737-8.8867 0-15.5513 2.987-19.994 8.962-2.2473 3.065-3.371 5.925-3.371 8.58 0 1.073.23 1.609.69 1.609-.3067 1.021-.945 1.532-1.915 1.532zm11.031 29.033c0-7.763.6893-15.296 2.068-22.599 1.3787-7.354 3.064-13.15 5.056-17.389 2.043-4.289 4.009-6.434 5.898-6.434.817 0 1.226.408 1.226 1.225-2.298 4.749-4.315 11.082-6.052 18.998-3.2173 14.453-4.826 24.896-4.826 31.331 0 .664-.3573.996-1.072.996-1.532 0-2.298-2.043-2.298-6.128z"/><path d="m161.511 542.134c-1.941 0-2.911-2.119-2.911-6.358 0-2.4.46-4.647 1.379-6.741-3.473 3.013-7.354 8.63-11.644 16.853-4.29 8.171-6.435 13.507-6.435 16.01 0 .613-.409.919-1.226.919-1.481 0-2.221-2.017-2.221-6.052 0-7.609.766-14.504 2.298-20.683s3.396-9.269 5.592-9.269c.971 0 1.456.562 1.456 1.686-2.349 7.456-4.035 15.091-5.056 22.904h.536c4.137-9.55 8.707-17.006 13.712-22.368 2.86-3.064 5.465-4.596 7.814-4.596.511 0 .919.153 1.225.459.358.307.537.69.537 1.149-.358.357-.792.894-1.303 1.609s-1.2 2.425-2.068 5.132c-.868 2.656-1.302 5.567-1.302 8.733 0 .409-.128.613-.383.613z"/><path d="m172.948 564.119c-4.188 0-6.282-3.294-6.282-9.882 0-3.932.97-8.247 2.911-12.946 2.707-6.588 6.256-11.082 10.648-13.482 1.89-1.021 3.652-1.532 5.286-1.532s2.911.357 3.83 1.072c.971.715 1.584 1.43 1.839 2.145l.459.996c-.153.869-.587 1.303-1.302 1.303-.817 0-1.303-.179-1.456-.537-.102-.409-.23-.741-.383-.996-.153-.306-.51-.689-1.072-1.149-.562-.511-1.2-.766-1.915-.766-3.319 0-6.332 2.988-9.039 8.963-3.065 6.895-4.597 13.38-4.597 19.457 0 3.065.613 4.597 1.839 4.597.97 0 2.323-1.073 4.06-3.218 1.787-2.196 3.651-4.928 5.592-8.196 3.371-5.618 6.103-10.495 8.197-14.632 1.736-3.677 3.523-5.515 5.362-5.515.97 0 1.455.587 1.455 1.762-.459.97-1.047 2.349-1.762 4.136s-1.659 5.337-2.834 10.648-1.762 10.597-1.762 15.857c0 5.261.792 7.891 2.375 7.891.613 0 1.174-.281 1.685-.843.511-.511.97-1.302 1.379-2.375.153-.562.511-.843 1.073-.843.204 0 .357.077.459.23s.102.409 0 .766c-.102.358-.281.843-.536 1.456-.255.664-.817 1.532-1.685 2.604-.817 1.073-1.686 1.609-2.605 1.609-2.145 0-3.804-1.404-4.979-4.213-1.123-2.809-1.685-6.128-1.685-9.959 0-3.83.281-7.507.842-11.031h-.766c-6.486 11.082-11.363 16.623-14.631 16.623z"/><path d="m244.689 529.418c1.481 1.123 2.885 1.685 4.213 1.685 1.379 0 2.349-.179 2.911-.536 0 .664-.306 1.302-.919 1.915-.562.562-1.405.843-2.528.843-1.073 0-2.247-.255-3.524-.766-.102 4.8-.894 9.728-2.375 14.784-1.481 5.005-3.396 9.218-5.745 12.64-2.349 3.371-4.673 5.056-6.971 5.056s-4.06-.894-5.286-2.681c-1.277-1.992-1.915-4.827-1.915-8.504 0-2.093.128-4.34.383-6.741-6.333 11.337-11.21 17.006-14.631 17.006-3.371 0-5.056-2.86-5.056-8.579 0-5.924 1.455-12.257 4.366-18.998 2.451-5.362 4.698-8.171 6.741-8.426.971 0 1.456.536 1.456 1.608-.613 1.481-1.379 3.397-2.298 5.746-.919 2.298-2.145 6-3.677 11.107-1.481 5.107-2.222 8.886-2.222 11.337 0 2.401.536 3.601 1.609 3.601 1.328 0 3.396-2.145 6.205-6.435 2.86-4.29 5.362-8.58 7.507-12.869l3.294-6.358c1.43-2.86 2.707-4.29 3.83-4.29 1.124 0 1.686.536 1.686 1.608-3.115 10.674-4.673 19.024-4.673 25.05 0 2.809.817 4.213 2.451 4.213 1.839 0 3.754-1.507 5.745-4.52 2.043-3.064 3.729-7.022 5.056-11.873 1.379-4.903 2.069-9.729 2.069-14.478v-.46c-1.481-1.073-2.682-2.349-3.601-3.83s-1.379-2.579-1.379-3.294c0-.766.332-1.455.996-2.068s1.379-.92 2.145-.92c.971 0 1.839.868 2.605 2.605.766 1.685 1.277 3.626 1.532 5.822z"/><path d="m285.288 524.898c0 3.779 1.073 5.797 3.218 6.052-.153.715-.741 1.072-1.762 1.072-2.094 0-3.575-1.277-4.443-3.83-.409-1.175-.613-2.605-.613-4.29 0-1.736.664-3.804 1.992-6.205 3.013-5.566 8.477-9.141 16.393-10.724 2.707-.511 5.592-.766 8.656-.766 3.115 0 5.771-.306 7.967-.919s3.703-1.303 4.52-2.069c2.145-1.991 3.728-2.987 4.749-2.987s1.532.306 1.532.919v.46c-.357 1.429-1.889 2.783-4.596 4.06-1.634.715-3.472 1.276-5.515 1.685-1.685.715-3.09 2.681-4.214 5.898-1.123 3.167-2.298 7.763-3.523 13.789 2.655-.255 4.851-.383 6.587-.383.46 0 .664.281.613.843-.204.613-.74.945-1.608.996-.869 0-2.886.255-6.052.766-2.4 11.848-4.494 20.223-6.282 25.126-4.494 12.409-10.903 18.614-19.227 18.614-5.975 0-9.703-2.732-11.184-8.196-.562-1.89-.843-3.78-.843-5.669 0-3.575.945-7.149 2.834-10.724 2.86-5.465 6.614-8.197 11.261-8.197.664 0 1.2.153 1.609.46.459.306.766.765.919 1.378-4.392 0-8.018 2.273-10.878 6.818-2.247 3.524-3.37 7.176-3.37 10.955 0 5.515 1.941 8.886 5.822 10.111.919.255 2.119.383 3.6.383s3.038-.434 4.673-1.302c1.685-.817 3.192-2.349 4.519-4.596 1.379-2.196 2.503-4.035 3.371-5.516.868-1.532 1.864-4.239 2.988-8.12 1.327-4.749 2.451-9.141 3.37-13.176.919-4.085 1.481-6.537 1.685-7.354-2.859.46-5.03.69-6.511.69-1.43 0-2.247-.638-2.451-1.915-.053-1.021.227-1.609.842-1.762.255.306 1.047.459 2.375.459 1.379 0 3.524-.128 6.435-.383 1.277-5.005 2.502-9.065 3.677-12.18 1.175-3.166 2.553-5.566 4.136-7.2-.817.053-2.093.08-3.83.08-9.805 0-16.674 2.886-20.606 8.657-1.89 2.707-2.835 5.439-2.835 8.196zm33.706 15.704c0 .255-.23.383-.689.383-.46 0-.92-.102-1.379-.306-.409-.205-.613-.486-.613-.843 0-5.209.587-9.397 1.762-12.563 1.175-3.217 2.732-4.826 4.673-4.826.511 0 .945.179 1.302.536s.536.843.536 1.456c-2.298 2.298-3.958 5.719-4.979 10.264-.409 1.89-.613 3.856-.613 5.899z"/><path d="m348.345 542.134c-1.941 0-2.911-2.119-2.911-6.358 0-2.4.46-4.647 1.379-6.741-3.473 3.013-7.354 8.63-11.644 16.853-4.289 8.171-6.434 13.507-6.434 16.01 0 .613-.409.919-1.226.919-1.481 0-2.222-2.017-2.222-6.052 0-7.609.766-14.504 2.299-20.683 1.532-6.179 3.396-9.269 5.592-9.269.97 0 1.455.562 1.455 1.686-2.349 7.456-4.035 15.091-5.056 22.904h.536c4.137-9.55 8.708-17.006 13.713-22.368 2.859-3.064 5.464-4.596 7.813-4.596.511 0 .919.153 1.226.459.357.307.536.69.536 1.149-.357.357-.791.894-1.302 1.609s-1.2 2.425-2.068 5.132c-.869 2.656-1.303 5.567-1.303 8.733 0 .409-.128.613-.383.613z"/><path d="m373.418 526.966c3.881 0 5.822 2.273 5.822 6.818 0 2.605-.868 5.337-2.605 8.197-2.962 4.749-6.894 7.124-11.797 7.124-.766 0-1.404-.128-1.915-.383s-.894-.638-1.149-1.149c3.626 0 6.946-2.094 9.959-6.282 2.451-3.37 3.677-6.46 3.677-9.269 0-2.093-.843-3.14-2.528-3.14-3.371 0-6.512 2.63-9.423 7.89-3.115 5.719-4.673 11.592-4.673 17.619 0 5.107 1.456 8.171 4.367 9.192.562.205 1.277.307 2.145.307s1.787-.204 2.758-.613c.97-.46 1.787-.996 2.451-1.609 1.328-1.225 2.426-2.579 3.294-4.06.204-.409.587-.613 1.149-.613.919 0 1.353.153 1.302.46-.153.561-.741 1.506-1.762 2.834-.97 1.328-1.889 2.401-2.757 3.218-.817.766-1.915 1.455-3.294 2.068-1.328.664-2.681.996-4.06.996-5.413 0-8.861-2.554-10.342-7.661-.459-1.736-.689-3.523-.689-5.362 0-3.421.791-7.149 2.374-11.184 2.503-6.129 5.95-10.546 10.342-13.253 2.4-1.43 4.851-2.145 7.354-2.145z"/><path d="m403.154 526.966c3.881 0 5.822 2.273 5.822 6.818 0 2.605-.868 5.337-2.604 8.197-2.962 4.749-6.894 7.124-11.797 7.124-.766 0-1.405-.128-1.916-.383s-.894-.638-1.149-1.149c3.626 0 6.946-2.094 9.959-6.282 2.451-3.37 3.677-6.46 3.677-9.269 0-2.093-.843-3.14-2.528-3.14-3.371 0-6.511 2.63-9.422 7.89-3.115 5.719-4.673 11.592-4.673 17.619 0 5.107 1.455 8.171 4.366 9.192.562.205 1.277.307 2.145.307s1.787-.204 2.758-.613c.97-.46 1.787-.996 2.451-1.609 1.328-1.225 2.426-2.579 3.294-4.06.205-.409.588-.613 1.149-.613.919 0 1.354.153 1.303.46-.153.561-.741 1.506-1.762 2.834-.971 1.328-1.89 2.401-2.758 3.218-.817.766-1.915 1.455-3.294 2.068-1.328.664-2.681.996-4.06.996-5.413 0-8.861-2.554-10.342-7.661-.459-1.736-.689-3.523-.689-5.362 0-3.421.792-7.149 2.375-11.184 2.502-6.129 5.949-10.546 10.341-13.253 2.401-1.43 4.852-2.145 7.354-2.145z"/><path d="m424.081 575.304c-2.962 0-5.158-1.558-6.588-4.673-1.379-3.115-2.068-7.788-2.068-14.019 0-6.23.919-13.609 2.758-22.138 1.838-8.529 3.983-15.602 6.434-21.22 2.503-5.617 4.673-8.426 6.512-8.426.868 0 1.302.511 1.302 1.532-1.073 2.451-2.426 6.154-4.06 11.108-1.634 4.903-3.013 9.448-4.137 13.635-1.072 4.188-2.068 9.091-2.987 14.708-.868 5.617-1.302 10.443-1.302 14.478 0 3.983.383 7.048 1.149 9.193.817 2.196 1.915 3.294 3.294 3.294 1.174 0 2.297-.562 3.37-1.686 1.073-1.072 1.839-2.144 2.298-3.217.255-.562.715-.715 1.379-.46.255.103.306.307.153.613-.102.357-.306.791-.612 1.302-.255.511-.741 1.303-1.456 2.375-1.532 2.401-3.345 3.601-5.439 3.601z"/><path d="m435.164 588.096c4.596 0 8.196-2.17 10.801-6.511 2.247-3.83 3.983-8.605 5.209-14.325-9.243.205-16.342 3.729-21.296 10.572-.307.459-.792.536-1.456.229-.357-.204-.459-.459-.306-.766 2.196-3.319 5.26-6.154 9.193-8.503 3.932-2.298 8.707-3.549 14.324-3.753.562-2.554 1.098-5.542 1.609-8.963s1.098-6.741 1.762-9.959h-.689c-6.639 11.797-11.695 17.696-15.168 17.696-3.881 0-5.822-2.988-5.822-8.963s1.277-11.975 3.83-18.002c2.554-6.077 4.878-9.346 6.971-9.805l.46-.08c.868 0 1.302.562 1.302 1.686-.561 1.379-1.276 3.192-2.145 5.439-.868 2.196-2.017 5.847-3.447 10.954-1.43 5.056-2.145 9.014-2.145 11.874 0 2.809.613 4.213 1.839 4.213 1.43 0 3.728-2.477 6.894-7.431 4.647-7.252 8.682-14.606 12.103-22.062 1.481-3.115 3.065-4.673 4.75-4.673 1.073 0 1.609.587 1.609 1.762-.971 1.787-2.145 5.132-3.524 10.035s-2.503 9.857-3.371 14.862c-.868 4.953-1.608 8.834-2.221 11.643 3.881.664 6.128 2.349 6.741 5.056.102.46.153 1.073.153 1.839 0 .817-.306 1.506-.919 2.068-.613.613-1.149.919-1.609.919.102-.357.129-.996.08-1.915-.053-.868-.232-1.608-.536-2.221-.256-.613-.767-1.251-1.533-1.915s-1.762-1.149-2.987-1.456c-3.933 14.81-10.75 22.215-20.453 22.215-4.188 0-6.971-1.481-8.35-4.443-.053-.153-.08-.28-.08-.383 0-.306.281-.51.843-.613.511-.053.894.126 1.149.537.919 2.093 3.064 3.14 6.435 3.14z"/><path d="m474.528 564.656c-1.073 0-1.609-.996-1.609-2.988 0-1.225.332-2.528.996-3.907s1.609-2.068 2.834-2.068c1.021 0 1.532.587 1.532 1.762s-.945 3.141-2.834 5.898z"/><path d="m21.49 444.583c-.242-9.928-.363-15.498-.363-25.547s0-15.981.363-26.152c.242-10.049 1.937-10.412 10.412-11.017.727-.727.727-2.059 0-2.785-4.479.242-11.986.605-15.618.605s-11.865-.363-15.74-.605c-.726.726-.726 2.058 0 2.785 8.476.726 10.413.968 10.655 11.017.242 10.05.363 15.982.363 26.031s-.121 15.619-.363 25.668-2.179 10.654-10.655 11.017c-.726.727-.726 2.059 0 2.785 4.722-.242 12.108-.605 15.74-.605s10.654.242 15.618.605c.727-.726.727-2.058 0-2.785-8.475-.363-10.17-.968-10.412-11.017z"/><path d="m104.809 394.216.122 42.013c0 2.3-.606 3.632-1.453 3.632-.969 0-2.301-2.179-5.812-6.659l-41.528-53.515-15.619-.242c-.726.727-.726 2.058 0 2.785 5.812.363 8.839 4.238 10.171 8.959l-.121 52.062c0 10.776-2.059 11.502-10.534 12.349-.726.727-.726 2.059 0 2.785 5.933-.121 7.991-.605 13.076-.605s6.901.484 12.955.605c.726-.726.726-2.058 0-2.785-8.475-.847-10.533-1.331-10.533-12.349l-.122-38.622c0-4.117.606-5.933 1.574-5.933.727 0 2.059 1.332 4.117 3.995l42.255 53.394c1.331 1.816 2.905 2.906 4.843 2.906 1.695 0 1.452-1.453 1.452-3.754l.121-61.021c0-10.775 2.059-11.502 10.534-12.349.726-.727.726-2.059 0-2.785-5.933.121-7.991.605-13.076.605s-6.901-.484-12.955-.605c-.726.726-.726 2.058 0 2.785 8.475.847 10.533 1.332 10.533 12.349z"/><path d="m148.239 444.583c-.242-9.686-.363-15.255-.363-24.82 4.237.121 8.475 2.058 11.017 5.206l19.009 23.972c2.421 3.148 4.116 6.781 4.359 8.718 0 .363.121.726.605.726 2.421-.121 2.179-.605 5.811-.605 4.722 0 7.749.484 13.44.605.726-.726.726-2.058 0-2.785-2.18-.363-7.749-1.573-11.866-6.659l-26.515-31.479c-.968-1.089-1.574-2.058-1.574-3.027 0-.847.121-1.695 4.238-5.932l17.798-18.282c5.569-5.933 11.623-7.749 16.466-8.354.726-.727.726-2.059 0-2.785-5.691.121-7.87.605-12.713.605s-8.596-.484-14.287-.605c-.726.726-.726 2.058 0 2.785 4.359.363 9.565 2.421 4.601 7.869l-19.372 21.309c-2.542 2.785-6.538 4.964-11.017 5.328 0-8.475.121-14.287.363-23.489.242-10.049 2.058-10.654 10.533-11.017.727-.727.727-2.059 0-2.785-5.932.121-9.686.605-15.86.605-6.054 0-9.444-.484-15.498-.605-.726.726-.726 2.058 0 2.785 8.475.363 10.17.968 10.413 11.017.242 10.05.484 15.982.484 26.031s-.242 15.619-.484 25.668c-.243 10.049-1.938 10.654-10.413 11.017-.726.727-.726 2.059 0 2.785 5.933-.121 9.565-.605 15.74-.605 6.054 0 9.565.484 15.618.605.727-.726.727-2.058 0-2.785-8.475-.363-10.291-.968-10.533-11.017z"/><path d="m250.968 381.382c-7.022-.968-6.659-3.269-18.524-3.269-12.229 0-23.004 8.112-23.004 20.946 0 11.381 7.991 16.829 17.434 20.825 7.628 3.39 20.22 6.053 20.22 19.856 0 9.807-5.812 16.103-15.377 16.103-11.381 0-19.856-6.296-22.519-18.404-1.453-.484-1.574-.242-2.664.364.484 9.322.968 12.47 2.421 18.403 7.628 0 10.897 2.785 21.673 2.785 5.569 0 10.775-1.332 15.013-3.875 6.901-4.358 11.381-11.865 11.381-19.614 0-11.502-7.87-16.95-16.709-20.703-5.811-2.422-22.519-7.144-22.519-19.009 0-6.78 6.417-14.771 13.439-14.771 11.865 0 16.829 8.717 19.251 16.708 1.331 0 1.574.121 2.663-.726-.363-5.812-.847-9.202-2.179-15.619z"/><path d="m304.407 458.991c11.744 0 23.73-5.57 31.963-16.345-.605-1.09-1.453-1.816-2.785-1.816-8.596 9.443-16.829 13.197-28.089 13.197-18.766 0-28.21-19.009-28.21-36.686 0-19.735 12.592-35.959 27.847-35.959 16.708 0 23.852 11.139 27 21.552 1.089.121 1.816 0 2.784-.606-.605-6.296-1.453-12.107-2.663-18.766-6.175-.606-11.623-5.449-26.516-5.449-23.972 0-39.348 18.767-39.348 41.529 0 21.43 11.986 39.349 38.017 39.349z"/><path d="m372.134 424.121c-2.664 0-3.511-.968-3.027-2.179l12.713-31.358h.363l11.623 33.537zm-13.681 25.305 7.264-18.767c.606-1.574 1.332-2.663 4.238-2.663h25.304l7.628 22.277c1.695 4.964-3.148 4.964-8.96 5.327-.726.727-.726 2.059 0 2.785 4.48-.121 11.139-.605 15.861-.605 4.964 0 10.17.484 14.65.605.726-.726.726-2.058 0-2.785-4.722-.363-8.717-.847-10.897-7.022l-25.304-70.465c-1.816 1.09-4.722 2.422-6.296 2.422l-28.089 66.106c-3.148 7.386-6.78 8.596-12.107 8.959-.727.727-.727 2.059 0 2.785 4.479-.121 7.264-.605 11.986-.605 4.964 0 8.596.484 13.076.605.726-.726.726-2.058 0-2.785-4.601-.242-10.291-1.089-8.354-6.174z"/><path d="m447.953 421.942c2.663.848 6.174 1.09 10.291 1.09 22.035 0 28.331-13.803 28.331-24.094 0-7.143-4.48-20.461-26.878-20.461-3.148 0-11.623 1.21-16.466 1.21-6.054 0-9.444-.484-15.498-.605-.726.726-.726 2.058 0 2.785 8.475.363 10.292.968 10.413 11.017.121 10.05.242 15.982.242 26.031s0 15.619-.242 25.668c-.243 10.17-1.938 10.654-10.413 11.017-.726.727-.726 2.059 0 2.785 5.933-.121 9.565-.605 15.74-.605 6.78 0 11.139.484 17.192.605.727-.726.727-2.058 0-2.785-8.354-.484-12.349-1.089-12.47-8.111-.121-9.081-.242-16.83-.242-25.547zm.242-34.748c.121-3.511 2.058-5.812 10.775-5.812 8.354 0 16.951 4.359 16.951 19.735 0 13.076-6.66 19.009-18.404 19.009-2.905 0-7.99-.242-9.564-.605v-.606c0-10.049.121-21.672.242-31.721z"/><path d="m529.749 414.557-14.166.121s-.121-16.466.243-26.394c.121-2.906 1.574-5.328 4.479-5.328h18.888c9.08 0 10.896 6.417 13.56 14.771 1.453.242 1.695 0 2.906-.605-.606-4.964-2.422-16.95-2.664-17.919 0-.242-.121-.363-.484-.363-2.058.363-3.148.847-6.054.847h-35.353c-3.632 0-9.686-.484-15.74-.605-.726.726-.726 2.058 0 2.785 8.475.363 10.049.968 10.412 11.017.243 9.928.243 15.982.243 26.031s0 15.74-.243 25.668c-.363 10.049-1.937 10.654-10.412 11.017-.726.727-.726 2.059 0 2.785 5.933-.121 12.35-.605 15.982-.605h26.878c5.812 0 15.498.605 15.498.605 1.695-6.054 3.39-14.408 4.358-20.582-1.211-.727-1.332-.969-2.906-.606-2.421 8.718-6.78 17.435-15.981 17.435h-18.888c-2.663 0-4.358-1.937-4.479-5.206-.364-10.17-.243-31.358-.243-31.358l14.166.121c10.291.121 10.776 2.663 11.139 8.112.726.726 1.937.726 2.663 0-.121-4.238-.484-5.691-.484-9.444 0-3.995.363-6.78.484-10.412-.726-.727-1.937-.727-2.663 0-.363 6.659-.848 8.112-11.139 8.112z"/><path d="m247.723 11.5906-126.286 129.2284c-42.6686 52.84 29.038 46.692 59.778 61.911 11.026 11.271-42.265 19.591-31.238 30.871 11.027 11.271 66.677 21.715 77.723 32.986 11.027 11.272-22.571 23.229-11.544 34.5s36.53.592 41.306 26.613c3.403 18.594 45.959 7.99 66.771-7.239 11.027-11.28-21.094-10.218-10.068-21.489 27.421-28.042 52.953-10.19 62.335-38.288 4.634-13.885-40.366-21.405-29.32-32.676 31.726-18.528 141.383-30.589 89.351-82.621l-130.901-133.7964c-16.009-15.36977-42.725-15.53898-57.907 0zm145.058 249.0934c0 6.411 47.238 10.613 47.238-1.514-6.731-19.477-41.654-18.161-47.238 1.514zm-212.788 34.067c11.186 9.673 28.464-2.406 33.644-15.905-10.839-14.402-51.411.517-33.644 15.905zm206.866-20.897c-14.42 12.935 1.617 26.058 15.83 17.701 3.168-3.215-.084-14.486-15.83-17.701z"/><g fill="#fff"><path d="m217.5 209.724c3.375 2.096 54.42 12.465 66.894 14.533 4.324.912 1.26 5.368-4.7 8.376-13.443 3.572-78.644-22.909-62.194-22.909z"/><path d="m297.997 20.6526 49.963 50.7437c4.738 4.8412 4.672 14.2229 2.021 16.9208l-24.808-19.8443-4.879 29.3858-20.728-10.9421-33.193 20.9725-10.989-44.2105-17.832 30.8523h-27.262c-11.111 0-12.418-14.1007-2.322-24.1967 17.636-19.036 37.875-38.4385 48.873-49.6815 11.055-11.29933 30.317-10.97971 41.156 0z"/></g></svg>