<svg height="744" viewBox="0 16 744 744" width="744" xmlns="http://www.w3.org/2000/svg" xmlns:xlink="http://www.w3.org/1999/xlink"><linearGradient id="a" x1=".430769" x2=".566265" y1=".359375" y2=".46875"><stop offset="0" stop-color="#fff2bc"/><stop offset="1" stop-color="#83560b"/></linearGradient><linearGradient id="b" x1=".530612" x2="1.081633" y1=".257813" y2=".703125"><stop offset="0" stop-color="#fff9db" stop-opacity=".732143"/><stop offset="1" stop-color="#2c2c2c"/></linearGradient><linearGradient id="c" x1=".477612" x2=".820895" y1=".054688" y2=".929688"><stop offset="0" stop-color="#b9e5ff" stop-opacity=".419643"/><stop offset="1" stop-color="#fff"/></linearGradient><linearGradient id="d" x1=".085271" x2=".488372" y1=".054687" y2=".960937"><stop offset="0" stop-color="#66b8ff"/><stop offset="1" stop-color="#00507a"/></linearGradient><g fill-rule="evenodd"><path d="m711.25 257.362183a370 370 0 1 0 -740 0 370 370 0 1 0 740-.000183l-370 .000183z" fill="url(#d)" stroke="#000" stroke-width="15.3505" transform="matrix(.854246 0 0 .873855 62.54055 163.805)"/><path d="m711.25 257.362183a370 370 0 1 0 -740 0 370 370 0 1 0 740-.000183l-370 .000183z" fill="url(#d)" transform="matrix(.832278 0 0 .846654 71.65299 166.4905)"/><path d="m899.793411 228.582779a134.350296 81.317284 0 1 0 -268.700592 0 134.35 81.3173 0 1 0 268.700181.000221l-134.349885-.000221z" fill="#060000" stroke="#000" stroke-width="1pt" transform="matrix(.54666 .459928 -.508911 .466767 319.9559 -324.0116)"/><path d="m314.02616 633.10904s-86.23998-136.49165-19.30338-274.3994c53.19842-110.85711 69.70934-212.92485 26.43998-285.139832-76.84543 9.578979-143.74142 48.851792-176.88622 82.388732-50.205814 48.92692-74.229089 100.22053-85.107252 136.07698 14.504217 176.80937 256.065552 344.78281 254.856872 341.07352z" fill="url(#c)" fill-opacity=".75" stroke="#f6f7f7" stroke-opacity=".392857" stroke-width=".977983pt"/><path d="m336.09076 639.8747c-2.29032-2.13985 112.72118-172.66728 253.30961-195.82268.43209-183.81859 84.95092-251.43702 90.30085-262.94587-11.29612-61.06669-44.46264-84.131049-74.39758-88.989344-50.73731-6.466234-41.21456 16.297184-47.44843 22.358094-34.33262 77.53156-106.23492 186.98119-116.38371 206.55202-28.55579 39.56956-89.0282 234.86184-113.21608 318.46024z" fill="url(#a)" stroke="#323232" stroke-width="5.63507"/><path d="m151.875 355.487183a6.25 9.6875 0 1 0 -12.5 0 6.25 9.6875 0 1 0 12.5-.000183l-6.25.000183z" fill="#665123" stroke-width="1.25097" transform="matrix(1.155716 .773221 -1.325171 2.206503 751.112 -543.8246)"/><path d="m437.91925 373.2363-2.2523-1.69167c-2.59063-1.94576-89.45496 226.06339-102.85956 266.91313 13.32139-43.07345 91.7047-247.25098 105.11186-265.22146z" fill="#665123" stroke="#665123" stroke-width="1.73912"/><path d="m486.64859 450.08466c30.49706-23.97635 43.93824-43.48925 74.13311-49.43597-5.21641-74.96907 52.40446-165.49775 99.24338-250.14813l-8.43467-15.22022c-19.37536 29.34504-134.52079 240.19543-164.94182 314.80432z" fill="url(#b)" stroke-width="1pt"/></g></svg>